<?xml version="1.0" encoding="utf-8"?>
<!-- Uploaded to: SVG Repo, www.svgrepo.com, Generator: SVG Repo Mixer Tools -->
<svg width="800px" height="800px" viewBox="0 -2.54 156.566 156.566" xmlns="http://www.w3.org/2000/svg">
  <g id="Group_3288" data-name="Group 3288" transform="translate(-891.084 -93.432)">
    <path id="Path_1728" data-name="Path 1728" d="M1008.45,242.416H930.28a13.409,13.409,0,0,1-13.409-13.409V139.428a2,2,0,0,1,2-2h100.987a2,2,0,0,1,2,2v89.579A13.41,13.41,0,0,1,1008.45,242.416Z" fill="none" stroke="#000000" stroke-miterlimit="10" stroke-width="5"/>
    <path id="Path_1729" data-name="Path 1729" d="M1040.15,193.217h-16.287a2,2,0,0,1-2-2V150.135a2,2,0,0,1,2-2h16.287a5,5,0,0,1,5,5v35.082A5,5,0,0,1,1040.15,193.217Z" fill="none" stroke="#000000" stroke-miterlimit="10" stroke-width="5"/>
    <path id="Path_1730" data-name="Path 1730" d="M1024.25,137.429H914.477a15.4,15.4,0,0,1-15.4-15.4V111.328a15.4,15.4,0,0,1,15.4-15.4h109.776a15.4,15.4,0,0,1,15.4,15.4v10.705A15.393,15.393,0,0,1,1024.25,137.429Z" fill="none" stroke="#000000" stroke-miterlimit="10" stroke-width="5"/>
    <path id="Path_1731" data-name="Path 1731" d="M1006.86,229.465H931.873a2,2,0,0,1-2-2V203.822a2,2,0,0,1,2-2h74.987a2,2,0,0,1,2,2v23.643A2,2,0,0,1,1006.86,229.465Z" fill="none" stroke="#000000" stroke-miterlimit="10" stroke-width="5"/>
    <line id="Line_75" data-name="Line 75" x1="11.65" transform="translate(1033.5 159.907)" fill="none" stroke="#000000" stroke-miterlimit="10" stroke-width="5"/>
    <path id="Path_1732" data-name="Path 1732" d="M914.871,193.217H898.584a5,5,0,0,1-5-5V153.135a5,5,0,0,1,5-5h16.287a2,2,0,0,1,2,2v41.082A2,2,0,0,1,914.871,193.217Z" fill="none" stroke="#000000" stroke-miterlimit="10" stroke-width="5"/>
    <line id="Line_76" data-name="Line 76" x1="11.643" transform="translate(893.584 159.907)" fill="none" stroke="#000000" stroke-miterlimit="10" stroke-width="5"/>
    <path id="Path_1733" data-name="Path 1733" d="M1019.05,174.52H919.682a8,8,0,0,1-8-8V139.429a2,2,0,0,1,2-2H1025.05a2,2,0,0,1,2,2V166.52A8,8,0,0,1,1019.05,174.52Z" fill="#ffffff" stroke="#000000" stroke-miterlimit="10" stroke-width="5"/>
    <path id="Path_1734" data-name="Path 1734" d="M943.542,183.062h-7.671a2,2,0,0,1-2-2V95.932h11.671v85.13A2,2,0,0,1,943.542,183.062Z" fill="#ffffff" stroke="#000000" stroke-miterlimit="10" stroke-width="5"/>
    <path id="Path_1735" data-name="Path 1735" d="M1002.86,183.062h-7.671a2,2,0,0,1-2-2V95.932h11.671v85.13A2,2,0,0,1,1002.86,183.062Z" fill="#ffffff" stroke="#000000" stroke-miterlimit="10" stroke-width="5"/>
    <path id="Path_1736" data-name="Path 1736" d="M967.951,162.723l-5.335-5.335a2,2,0,0,1,0-2.828l5.335-5.335a2,2,0,0,1,2.828,0l5.334,5.335a2,2,0,0,1,0,2.828l-5.334,5.335A2,2,0,0,1,967.951,162.723Z" fill="none" stroke="#000000" stroke-miterlimit="10" stroke-width="5"/>
    <path id="Path_1737" data-name="Path 1737" d="M947.1,190.562H932.309a2,2,0,0,1-2-2v-8.75a2,2,0,0,1,2-2H947.1a2,2,0,0,1,2,2v8.75A2,2,0,0,1,947.1,190.562Z" fill="#ffffff" stroke="#000000" stroke-miterlimit="10" stroke-width="5"/>
    <path id="Path_1738" data-name="Path 1738" d="M1006.42,190.562H991.625a2,2,0,0,1-2-2v-8.75a2,2,0,0,1,2-2h14.795a2,2,0,0,1,2,2v8.75A2,2,0,0,1,1006.42,190.562Z" fill="#ffffff" stroke="#000000" stroke-miterlimit="10" stroke-width="5"/>
    <path id="Path_1739" data-name="Path 1739" d="M947.1,160.15H932.309a2,2,0,0,1-2-2V153.8a2,2,0,0,1,2-2H947.1a2,2,0,0,1,2,2v4.352A2,2,0,0,1,947.1,160.15Z" fill="#ffffff" stroke="#000000" stroke-miterlimit="10" stroke-width="5"/>
    <path id="Path_1740" data-name="Path 1740" d="M1006.42,160.15H991.625a2,2,0,0,1-2-2V153.8a2,2,0,0,1,2-2h14.795a2,2,0,0,1,2,2v4.352A2,2,0,0,1,1006.42,160.15Z" fill="#ffffff" stroke="#000000" stroke-miterlimit="10" stroke-width="5"/>
    <line id="Line_77" data-name="Line 77" x2="78.549" transform="translate(929.871 211.132)" fill="none" stroke="#000000" stroke-miterlimit="10" stroke-width="5"/>
  </g>
</svg>