<?xml version="1.0" encoding="utf-8"?>
<!-- Uploaded to: SVG Repo, www.svgrepo.com, Generator: SVG Repo Mixer Tools -->
<svg width="800px" height="800px" viewBox="0 0 20 20" xmlns="http://www.w3.org/2000/svg">
  <g id="mountain" transform="translate(-2 -2)">
    <path id="secondary" fill="#2ca9bc" d="M20,21H4l5.12-9.48a1,1,0,0,1,1.76,0l2.49,4.62,1.23-2.53a1,1,0,0,1,1.8,0Z"/>
    <path id="primary" d="M16.4,13.61,20,21H11l3.6-7.39a1,1,0,0,1,1.8,0ZM4,21h7l2.37-4.86-2.49-4.62a1,1,0,0,0-1.76,0ZM3,21H21M15,6a3,3,0,1,0,3-3,3,3,0,0,0-3,3Z" fill="none" stroke="#000000" stroke-linecap="round" stroke-linejoin="round" stroke-width="2"/>
  </g>
</svg>