<?xml version="1.0" ?>
<!-- Uploaded to: SVG Repo, www.svgrepo.com, Generator: SVG Repo Mixer Tools -->
<svg fill="#000000" width="800px" height="800px" viewBox="0 0 512 512" xmlns="http://www.w3.org/2000/svg">
<g id="Notebook">
<path d="M269.1253,455.576a8.7109,8.7109,0,0,0,14.87,6.16l20.13-20.1308,20.13,20.1308a8.7109,8.7109,0,0,0,14.87-6.16V375.98h-70Z"/>
<path d="M387.2781,323.48H146.6253c-47.0739,1.9344-45.9417,69,1.5039,70h94.744V362.8914a13.1616,13.1616,0,0,1,13.1634-13.1624H352.21a13.1633,13.1633,0,0,1,13.1635,13.1634V393.48h21.9049a13.0971,13.0971,0,0,0,13.0972-13.0961V336.5762A13.0972,13.0972,0,0,0,387.2781,323.48Z"/>
<path d="M400.3369,284.1649V60.9971a13.1049,13.1049,0,0,0-13.1037-13.1036H177.2119v249.375H387.2332A13.105,13.105,0,0,0,400.3369,284.1649ZM341.2744,183.5185h-105c-17.2074-.3739-17.2522-25.9242,0-26.25h105C358.4881,157.5377,358.5543,183.1788,341.2744,183.5185Zm0-52.5h-105c-17.2074-.3739-17.2522-25.9242,0-26.25h105C358.4881,105.0377,358.5543,130.6788,341.2744,131.0185Z"/>
<path d="M150.9982,47.855c-20.7556-1.9247-39.501,13.8086-39.3729,35.0011V308.285c10.961-7.8752,25.1648-11.7311,39.3729-11.056Z"/>
</g>
</svg>